<?xml version="1.0" encoding="UTF-8"?><svg id="a" xmlns="http://www.w3.org/2000/svg" viewBox="0 0 93.21 403.32"><defs><style>.b{fill:none;stroke:#231f20;stroke-miterlimit:10;}</style></defs><g><rect class="b" x="7.93" y="135" width="55.65" height="54.84"/><rect class="b" x="29.71" y="114.03" width="55.65" height="54.84"/><line class="b" x1="7.13" y1="135" x2="31.32" y2="113.22"/><line class="b" x1="62.77" y1="136.61" x2="86.16" y2="114.03"/><line class="b" x1="62.77" y1="189.03" x2="86.16" y2="168.06"/><line class="b" x1="7.93" y1="189.03" x2="30.51" y2="168.06"/></g><polygon class="b" points="80.52 84.06 50.8 72.41 24.24 90.14 26.26 58.45 1.11 38.88 32.08 30.94 43.09 1.12 60.22 27.9 92.17 29.04 71.79 53.53 80.52 84.06"/><path class="b" d="M85.82,390.55c-20.04,17.82-50.73,16.01-68.55-4.03-14.25-16.03-12.81-40.59,3.23-54.84,12.83-11.4,32.47-10.25,43.87,2.58,9.12,10.26,8.2,25.98-2.06,35.1-8.21,7.3-20.78,6.56-28.08-1.65-5.84-6.57-5.25-16.62,1.32-22.46,5.25-4.67,13.3-4.2,17.97,1.06,3.74,4.2,3.36,10.64-.85,14.38-3.36,2.99-8.51,2.69-11.5-.68-2.39-2.69-2.15-6.81,.54-9.2"/><g><line class="b" x1="3.27" y1="227.99" x2="21.82" y2="286.86"/><line class="b" x1="33.52" y1="227.99" x2="52.07" y2="286.86"/><line class="b" x1="90.01" y1="228.82" x2="47.99" y2="274.03"/><line class="b" x1="14.75" y1="286.86" x2="76.48" y2="286.86"/></g></svg>